<svg width="1280" height="969" viewBox="-100 0 1380 969" fill="none"
    xmlns="http://www.w3.org/2000/svg">
    <mask id="mask0_16_11" style="mask-type:luminance" maskUnits="userSpaceOnUse" x="741" y="50" width="522" height="559">
        <path d="M753.171 378.878C724.881 299.686 748.636 243.431 824.437 210.113C900.237 176.795 966.999 135.262 1024.72 85.5145C1082.44 35.767 1137.27 39.0172 1189.2 95.265C1241.14 151.513 1265.33 210.726 1261.8 272.905C1258.26 335.084 1250.9 402.219 1239.74 474.312C1228.58 546.404 1184.53 589.314 1107.6 603.039C1030.67 616.765 959.435 602.634 893.904 560.647C828.373 518.66 781.462 458.07 753.171 378.878Z" fill="white"/>
    </mask>
    <g mask="url(#mask0_16_11)">
        <path d="M753.171 378.878C724.881 299.686 748.636 243.431 824.437 210.113C900.237 176.795 966.999 135.262 1024.72 85.5145C1082.44 35.767 1137.27 39.0172 1189.2 95.265C1241.14 151.513 1265.33 210.726 1261.8 272.905C1258.26 335.084 1250.9 402.219 1239.74 474.312C1228.58 546.404 1184.53 589.314 1107.6 603.039C1030.67 616.765 959.435 602.634 893.904 560.647C828.373 518.66 781.462 458.07 753.171 378.878Z" fill="url(#paint0_radial_16_11)"/>
    </g>
    <mask id="mask1_16_11" style="mask-type:luminance" maskUnits="userSpaceOnUse" x="-147" y="353" width="553" height="616">
        <path d="M395.5 739.5C424.5 839.167 389.167 907.333 289.5 944C189.833 980.667 95 975.833 5 929.5C-85 883.167 -134.667 815 -144 725C-153.333 635 -135.5 562.833 -90.5 508.5C-45.5 454.167 4.16667 419.5 58.5 404.5C112.833 389.5 182.833 373.833 268.5 357.5C354.167 341.167 389.5 375.833 374.5 461.5C359.5 547.167 366.5 639.833 395.5 739.5Z" fill="white"/>
    </mask>
    <g mask="url(#mask1_16_11)">
        <path d="M395.5 739.5C424.5 839.167 389.167 907.333 289.5 944C189.833 980.667 95 975.833 5 929.5C-85 883.167 -134.667 815 -144 725C-153.333 635 -135.5 562.833 -90.5 508.5C-45.5 454.167 4.16667 419.5 58.5 404.5C112.833 389.5 182.833 373.833 268.5 357.5C354.167 341.167 389.5 375.833 374.5 461.5C359.5 547.167 366.5 639.833 395.5 739.5Z" fill="url(#paint1_radial_16_11)"/>
    </g>
    <defs>
        <radialGradient id="paint0_radial_16_11" cx="0" cy="0" r="1" gradientUnits="userSpaceOnUse" gradientTransform="translate(-34960.8 -5511.6) rotate(146) scale(53677.1 50512.2)">
            <stop stop-color="#FF3CAC"/>
            <stop offset="0.5" stop-color="#784BA0"/>
            <stop offset="1" stop-color="#2B86C5"/>
        </radialGradient>
        <radialGradient id="paint1_radial_16_11" cx="0" cy="0" r="1" gradientUnits="userSpaceOnUse" gradientTransform="translate(27439.1 31089.6) scale(55170.9 61472)">
            <stop stop-color="#FF3CAC"/>
            <stop offset="0.0001" stop-color="#FF3CAC"/>
            <stop offset="0.5" stop-color="#784BA0"/>
            <stop offset="0.9999" stop-color="#4076BB"/>
            <stop offset="1" stop-color="#2B86C5"/>
        </radialGradient>
    </defs>
</svg>
